PathFileType	4	(X/Y/Z)	OpenSim_Sub09_CSBaseline_Magnet.trc
DataRate	CameraRate	NumFrames	NumMarkers	Units	OrigDataRate	OrigDataStartFrame	OrigNumFrames
100	100	23	8	m	100	4381	5840
Frame#	Time	torso_imu_offset_imu	pelvis_imu_offset_imu	tibia_r_imu_offset_imu	femur_r_imu_offset_imu	tibia_l_imu_offset_imu	femur_l_imu_offset_imu	toes_r_imu_offset_imu	toes_l_imu_offset_imu
				X1	Y1	Z1	X2	Y2	Z2	X3	Y3	Z3	X4	Y4	Z4	X5	Y5	Z5	X6	Y6	Z6	X7	Y7	Z7	X8		Y8	Z8	

4381	43.80000000	-0.93609923	-0.15915005	0.00482920	-0.67770721	0.17259662	-0.63277678	-0.59457117	-0.60562286	-0.10232588	-0.70782023	-0.45392679	0.11516480	-0.30173110	0.75926376	0.01745931	-0.75125888	-0.07796003	0.12853471	-0.69354147	-0.12850098	-0.34979634	-0.80703707	0.11086438	-0.09862331
4382	43.81000000	-0.93635350	-0.15976171	0.00662401	-0.67626255	0.16693813	-0.63962239	-0.59081782	-0.60738465	-0.11161026	-0.70160199	-0.45774292	0.11214342	-0.33562326	0.74515594	0.01884252	-0.74863266	-0.08977189	0.12780296	-0.69298586	-0.12680584	-0.35546514	-0.80595895	0.09391993	-0.12576311
4383	43.82000000	-0.93715875	-0.16310334	0.01071149	-0.67465842	0.16971957	-0.63264962	-0.59029784	-0.60709084	-0.10998437	-0.69853130	-0.46109946	0.10653867	-0.36407784	0.73611929	0.02464182	-0.75158347	-0.10054317	0.12126276	-0.69442924	-0.13712134	-0.35291550	-0.80380505	0.07498329	-0.15127034
4384	43.83000000	-0.94445071	-0.15786547	0.01546022	-0.66804217	0.16749602	-0.64008687	-0.58835240	-0.61335567	-0.11017369	-0.69527152	-0.47300586	0.11052116	-0.39190611	0.72236172	0.02625832	-0.75316860	-0.09975861	0.12753735	-0.68929143	-0.13308980	-0.35127833	-0.79676242	0.05107406	-0.18896808
4385	43.84000000	-0.93948437	-0.15407334	0.01555486	-0.66883723	0.16276943	-0.63948465	-0.58792100	-0.60957994	-0.11231790	-0.68660055	-0.47833850	0.11223236	-0.41914166	0.70296312	0.02757091	-0.75028402	-0.09882177	0.12305914	-0.68918502	-0.13439521	-0.35602136	-0.78931264	0.03255956	-0.21404996
4386	43.85000000	-0.94036125	-0.15654250	0.01975138	-0.66734288	0.15906197	-0.64234840	-0.58812699	-0.61843800	-0.12044066	-0.68348980	-0.48608211	0.10998867	-0.44305148	0.68227811	0.02744566	-0.75449205	-0.10082276	0.11977325	-0.69392851	-0.14034985	-0.35151903	-0.78182977	0.01532324	-0.24070045
4387	43.86000000	-0.93729642	-0.15274481	0.01828425	-0.66847125	0.15359126	-0.64569324	-0.58415354	-0.61838980	-0.12229525	-0.67758610	-0.48852559	0.11144230	-0.47028433	0.66763613	0.02255465	-0.75027583	-0.10305144	0.11682942	-0.69402972	-0.13579557	-0.34568330	-0.77526458	-0.00014884	-0.27459824
4388	43.87000000	-0.93764724	-0.15367292	0.02054480	-0.66913180	0.15772952	-0.64560985	-0.58331035	-0.62143224	-0.12126598	-0.67495924	-0.49826943	0.11425310	-0.50319373	0.64036405	0.01685142	-0.75782449	-0.10337743	0.12317292	-0.69793529	-0.14467402	-0.34808978	-0.76156038	-0.01671477	-0.30304876
4389	43.88000000	-0.94080507	-0.15463697	0.03091721	-0.66753107	0.15254056	-0.64748665	-0.58361424	-0.62229544	-0.12584708	-0.66901944	-0.49944231	0.11667880	-0.53105159	0.62076386	0.01604751	-0.75430782	-0.10410172	0.11968967	-0.69502543	-0.14450879	-0.34034876	-0.75200440	-0.03538178	-0.32584229
4390	43.89000000	-0.93729184	-0.15241875	0.02364792	-0.66285079	0.15468138	-0.64964418	-0.58195889	-0.62536017	-0.12393234	-0.66748493	-0.50666542	0.11810197	-0.55281569	0.60010376	0.00907137	-0.74862788	-0.09793462	0.12631302	-0.69447864	-0.14938393	-0.34289977	-0.73445586	-0.04568242	-0.34840079
4391	43.90000000	-0.93622129	-0.15203173	0.02536477	-0.66474287	0.15628338	-0.65572886	-0.57578948	-0.63010537	-0.12747382	-0.66673200	-0.50909304	0.11281975	-0.57706519	0.57778260	0.00694467	-0.74805101	-0.09581171	0.12916097	-0.68893379	-0.14879050	-0.33983102	-0.72365659	-0.06866166	-0.36812625
4392	43.91000000	-0.93811957	-0.15107148	0.02826925	-0.65893883	0.15372394	-0.66243225	-0.57183690	-0.63180349	-0.12774682	-0.65812137	-0.51900307	0.12120341	-0.59669699	0.55387633	0.00438945	-0.75032253	-0.08535162	0.12364164	-0.68911732	-0.14943399	-0.34102339	-0.70806946	-0.07858926	-0.39382951
4393	43.92000000	-0.94100589	-0.14463832	0.03388135	-0.66177140	0.15712756	-0.65356323	-0.56282732	-0.63897766	-0.13379739	-0.65725277	-0.51891358	0.11915512	-0.62031857	0.53013244	0.00355929	-0.75294385	-0.08508659	0.12888735	-0.69196432	-0.15421654	-0.33909382	-0.70003390	-0.08508486	-0.40376728
4394	43.93000000	-0.93747879	-0.14512503	0.03743384	-0.65987503	0.15846384	-0.65928889	-0.56347142	-0.64658951	-0.13212454	-0.65157823	-0.52099310	0.11764973	-0.63839062	0.50176017	-0.00093686	-0.75000735	-0.08514714	0.13254840	-0.68892486	-0.15273181	-0.34424530	-0.68723846	-0.10226506	-0.42822615
4395	43.94000000	-0.93661552	-0.14926944	0.03571068	-0.65202529	0.15461310	-0.65188641	-0.55910523	-0.64708290	-0.13891805	-0.65193459	-0.52907610	0.12010110	-0.65900693	0.47734627	-0.00316289	-0.74463361	-0.07611762	0.13252868	-0.68373313	-0.15363066	-0.34475469	-0.67415154	-0.11197250	-0.44321806
4396	43.95000000	-0.93452295	-0.15370934	0.03668579	-0.65520798	0.15188400	-0.65517864	-0.55189684	-0.65045492	-0.14675875	-0.64963581	-0.53622112	0.12153988	-0.68086476	0.44752680	0.00076284	-0.74971210	-0.07725602	0.13385269	-0.68693624	-0.15634210	-0.33575073	-0.65286475	-0.12551522	-0.44948265
4397	43.96000000	-0.93611918	-0.15456871	0.04382773	-0.65561753	0.15142042	-0.66156331	-0.54920031	-0.65435314	-0.14792369	-0.64044146	-0.53676351	0.11490233	-0.69985333	0.41996951	0.00053548	-0.75376928	-0.07216416	0.14028575	-0.68682266	-0.15620564	-0.33829568	-0.64777262	-0.14141757	-0.46102204
4398	43.97000000	-0.93641220	-0.15276468	0.04210467	-0.65852429	0.15529146	-0.66192520	-0.54568922	-0.66238361	-0.14488649	-0.64166687	-0.53999133	0.11583118	-0.70631870	0.39458136	0.00516464	-0.74979755	-0.06898367	0.14302304	-0.67839056	-0.16078207	-0.33760251	-0.63478944	-0.15595633	-0.48134293
4399	43.98000000	-0.93847780	-0.15176447	0.04606425	-0.65097074	0.15637450	-0.66406237	-0.53672470	-0.66696932	-0.14800755	-0.63598969	-0.54441866	0.11539824	-0.72054786	0.37897855	0.00895280	-0.75082742	-0.06519626	0.14752863	-0.67620535	-0.16792936	-0.33636384	-0.61720560	-0.17663427	-0.49047555
4400	43.99000000	-0.93700689	-0.15638185	0.04236548	-0.65108183	0.15408845	-0.66266967	-0.53475269	-0.67466351	-0.15276052	-0.63869959	-0.54835004	0.11064599	-0.72764427	0.35387111	0.01257390	-0.75197228	-0.06404016	0.14697483	-0.68099321	-0.16679616	-0.33852034	-0.60422814	-0.19944644	-0.49487770
4401	44.00000000	-0.93431227	-0.15135036	0.04930302	-0.64998351	0.15386937	-0.65946766	-0.52226044	-0.67994333	-0.15488899	-0.63431673	-0.55297278	0.11141479	-0.74034230	0.33485150	0.01408819	-0.74780563	-0.06639424	0.14187946	-0.67641255	-0.16918894	-0.34001501	-0.59641973	-0.21387820	-0.49835380
4402	44.01000000	-0.93617234	-0.15100189	0.05058099	-0.64919619	0.15330563	-0.66473093	-0.52336735	-0.68306995	-0.15801288	-0.63069130	-0.55140620	0.11711257	-0.73958872	0.31343057	0.01484115	-0.74571433	-0.06324122	0.14382201	-0.67071844	-0.17439317	-0.34624430	-0.58774440	-0.22700510	-0.50993263
4403	44.02000000	-0.93628339	-0.15826115	0.05549077	-0.64985824	0.15801183	-0.67150173	-0.50852374	-0.69246711	-0.15103996	-0.63132582	-0.55444390	0.10966114	-0.74569953	0.29821512	0.01619632	-0.74115241	-0.05905924	0.15451743	-0.67083848	-0.17237444	-0.34605831	-0.57662937	-0.23798400	-0.50774996
